<svg width="24" height="24" viewBox="0 0 24 24" fill="none" xmlns="http://www.w3.org/2000/svg">
<path d="M11.9995 0C13.9324 0.000124765 15.4995 1.56708 15.4995 3.5C15.4995 4.03682 15.3786 4.54536 15.1626 5H16.644C19.0699 5.00033 21.1462 6.74191 21.5679 9.13086L23.1558 18.1309C23.696 21.1924 21.3408 23.9998 18.2319 24H5.76709C2.65836 23.9997 0.303037 21.1924 0.843262 18.1309L2.43115 9.13086C2.85282 6.74194 4.9292 5.0004 7.35498 5H8.8374C8.62135 4.5453 8.49951 4.0369 8.49951 3.5C8.49951 1.56713 10.0667 0.000206367 11.9995 0ZM7.35498 7C5.89966 7.0004 4.65387 8.04528 4.40088 9.47852L2.81299 18.4785C2.48888 20.3153 3.90196 21.9997 5.76709 22H18.2319C20.0972 21.9998 21.5102 20.3154 21.186 18.4785L19.5981 9.47852C19.3451 8.04525 18.0994 7.00033 16.644 7H7.35498ZM10.646 11.6465C10.8412 11.4513 11.1577 11.4515 11.353 11.6465C11.5483 11.8417 11.5483 12.1583 11.353 12.3535L9.20654 14.5L11.353 16.6465C11.5483 16.8417 11.5483 17.1583 11.353 17.3535C11.1577 17.5485 10.8412 17.5487 10.646 17.3535L8.49951 15.207V17C8.49951 17.2761 8.27565 17.5 7.99951 17.5C7.72365 17.4997 7.49951 17.2759 7.49951 17V12C7.49951 11.7241 7.72365 11.5003 7.99951 11.5C8.27565 11.5 8.49951 11.7239 8.49951 12V13.793L10.646 11.6465ZM14.4995 11.5C15.3709 11.5 16.1108 12.0572 16.3853 12.833C16.4773 13.0934 16.3409 13.3797 16.0806 13.4717C15.8206 13.5631 15.5349 13.4268 15.4429 13.167C15.3053 12.778 14.9341 12.5 14.4995 12.5C13.9475 12.5003 13.4995 12.9479 13.4995 13.5V15.5C13.4995 16.0521 13.9475 16.4997 14.4995 16.5C15.0518 16.5 15.4995 16.0523 15.4995 15.5H14.9995C14.7237 15.4997 14.4995 15.2759 14.4995 15C14.4995 14.7241 14.7237 14.5003 14.9995 14.5H15.9995C16.2757 14.5 16.4995 14.7239 16.4995 15V15.5C16.4995 16.6046 15.6041 17.5 14.4995 17.5C13.3952 17.4997 12.4995 16.6044 12.4995 15.5V13.5C12.4995 12.3956 13.3952 11.5003 14.4995 11.5ZM11.9995 2C11.1713 2.00021 10.4995 2.6717 10.4995 3.5C10.4995 4.3283 11.1713 4.99979 11.9995 5C12.8278 4.99988 13.4995 4.32835 13.4995 3.5C13.4995 2.67165 12.8278 2.00012 11.9995 2Z" fill="#3596ED"/>
</svg>
